<svg width="375" height="799" viewBox="0 0 375 799" fill="none" xmlns="http://www.w3.org/2000/svg">
<path d="M712 774C712 358.085 374.87 20.9189 -41 20.9189C-456.87 20.9189 -794 358.085 -794 774C-794 1189.92 -456.87 1527.08 -41 1527.08C374.87 1527.08 712 1189.92 712 774Z" fill="#DD3CEF"/>
<mask id="mask0_325_3" style="mask-type:luminance" maskUnits="userSpaceOnUse" x="-460" y="355" width="838" height="838">
<path d="M377.334 355.622H-459.333V1192.38H377.334V355.622Z" fill="white"/>
</mask>
<g mask="url(#mask0_325_3)">
<g filter="url(#filter0_d_325_3)">
<path fill-rule="evenodd" clip-rule="evenodd" d="M180.885 456.497C157.818 433.566 120.415 433.566 97.3477 456.497L1.86726 551.402C-21.2038 574.333 -21.2038 611.514 1.86726 634.446L97.3477 729.355C120.415 752.286 157.818 752.286 180.885 729.355L276.365 634.446C299.436 611.514 299.436 574.333 276.365 551.402L180.885 456.497ZM133.149 492.088C136.445 488.812 141.787 488.812 145.084 492.088L240.56 586.993C243.856 590.269 243.856 595.583 240.56 598.858L145.084 693.763C141.787 697.039 136.445 697.039 133.149 693.763L37.6724 598.858C34.3759 595.583 34.3759 590.269 37.6724 586.993L133.149 492.088ZM-316.593 454.388C-349.219 454.388 -375.666 480.679 -375.666 513.108V680.881C-375.666 713.314 -349.219 739.601 -316.593 739.601H-147.812C-115.187 739.601 -88.7395 713.314 -88.7395 680.881V513.108C-88.7395 480.679 -115.187 454.388 -147.812 454.388H-316.593ZM-325.031 513.108C-325.031 508.476 -321.253 504.719 -316.593 504.719H-147.812C-143.152 504.719 -139.375 508.476 -139.375 513.108V680.881C-139.375 685.513 -143.152 689.27 -147.812 689.27H-316.593C-321.253 689.27 -325.031 685.513 -325.031 680.881V513.108ZM-375.666 882.209C-375.666 849.777 -349.219 823.49 -316.593 823.49H-147.812C-115.187 823.49 -88.7395 849.777 -88.7395 882.209V1049.98C-88.7395 1082.41 -115.187 1108.7 -147.812 1108.7H-316.593C-349.219 1108.7 -375.666 1082.41 -375.666 1049.98V882.209ZM-316.593 873.821C-321.253 873.821 -325.031 877.578 -325.031 882.209V1049.98C-325.031 1054.61 -321.253 1058.37 -316.593 1058.37H-147.812C-143.152 1058.37 -139.375 1054.61 -139.375 1049.98V882.209C-139.375 877.578 -143.152 873.821 -147.812 873.821H-316.593ZM54.7237 823.49C22.1021 823.49 -4.34915 849.777 -4.34915 882.209V1049.98C-4.34915 1082.41 22.1021 1108.7 54.7237 1108.7H223.509C256.13 1108.7 282.581 1082.41 282.581 1049.98V882.209C282.581 849.777 256.13 823.49 223.509 823.49H54.7237ZM46.2859 882.209C46.2859 877.578 50.0635 873.821 54.7237 873.821H223.509C228.169 873.821 231.946 877.578 231.946 882.209V1049.98C231.946 1054.61 228.169 1058.37 223.509 1058.37H54.7237C50.0635 1058.37 46.2859 1054.61 46.2859 1049.98V882.209Z" fill="white"/>
</g>
</g>
<defs>
<filter id="filter0_d_325_3" x="-385.666" y="434.298" width="689.334" height="689.404" filterUnits="userSpaceOnUse" color-interpolation-filters="sRGB">
<feFlood flood-opacity="0" result="BackgroundImageFix"/>
<feColorMatrix in="SourceAlpha" type="matrix" values="0 0 0 0 0 0 0 0 0 0 0 0 0 0 0 0 0 0 127 0" result="hardAlpha"/>
<feOffset dy="5"/>
<feGaussianBlur stdDeviation="5"/>
<feComposite in2="hardAlpha" operator="out"/>
<feColorMatrix type="matrix" values="0 0 0 0 0.8375 0 0 0 0 0.8375 0 0 0 0 0.8375 0 0 0 0.2 0"/>
<feBlend mode="normal" in2="BackgroundImageFix" result="effect1_dropShadow_325_3"/>
<feBlend mode="normal" in="SourceGraphic" in2="effect1_dropShadow_325_3" result="shape"/>
</filter>
</defs>
</svg>
