<svg width="1500" height="1542" viewBox="0 0 1500 1542" fill="none" xmlns="http://www.w3.org/2000/svg">
<path d="M1500 771C1500 356.697 1164.21 20.8378 750 20.8378C335.786 20.8378 0 356.697 0 771C0 1185.3 335.786 1521.16 750 1521.16C1164.21 1521.16 1500 1185.3 1500 771Z" fill="#DD3CEF"/>
<mask id="mask0_325_3" style="mask-type:luminance" maskUnits="userSpaceOnUse" x="333" y="354" width="834" height="834">
<path d="M1166.67 354.243H333.333V1187.76H1166.67V354.243Z" fill="white"/>
</mask>
<g mask="url(#mask0_325_3)">
<g filter="url(#filter0_d_325_3)">
<path fill-rule="evenodd" clip-rule="evenodd" d="M970.999 454.727C948.024 431.885 910.77 431.885 887.795 454.727L792.695 549.265C769.716 572.107 769.716 609.144 792.695 631.987L887.795 726.528C910.77 749.37 948.024 749.37 970.999 726.528L1066.1 631.987C1089.08 609.144 1089.08 572.107 1066.1 549.265L970.999 454.727ZM923.454 490.181C926.737 486.918 932.058 486.918 935.341 490.181L1030.44 584.718C1033.72 587.981 1033.72 593.274 1030.44 596.537L935.341 691.074C932.058 694.338 926.737 694.338 923.454 691.074L828.358 596.537C825.074 593.274 825.074 587.981 828.358 584.718L923.454 490.181ZM475.504 452.627C443.008 452.627 416.666 478.816 416.666 511.119V678.242C416.666 710.549 443.008 736.734 475.504 736.734H643.612C676.108 736.734 702.449 710.549 702.449 678.242V511.119C702.449 478.816 676.108 452.627 643.612 452.627H475.504ZM467.099 511.119C467.099 506.505 470.862 502.763 475.504 502.763H643.612C648.254 502.763 652.016 506.505 652.016 511.119V678.242C652.016 682.856 648.254 686.598 643.612 686.598H475.504C470.862 686.598 467.099 682.856 467.099 678.242V511.119ZM416.666 878.79C416.666 846.483 443.008 820.298 475.504 820.298H643.612C676.108 820.298 702.449 846.483 702.449 878.79V1045.91C702.449 1078.22 676.108 1104.41 643.612 1104.41H475.504C443.008 1104.41 416.666 1078.22 416.666 1045.91V878.79ZM475.504 870.434C470.862 870.434 467.099 874.176 467.099 878.79V1045.91C467.099 1050.53 470.862 1054.27 475.504 1054.27H643.612C648.254 1054.27 652.016 1050.53 652.016 1045.91V878.79C652.016 874.176 648.254 870.434 643.612 870.434H475.504ZM845.341 820.298C812.849 820.298 786.504 846.483 786.504 878.79V1045.91C786.504 1078.22 812.849 1104.41 845.341 1104.41H1013.45C1045.95 1104.41 1072.29 1078.22 1072.29 1045.91V878.79C1072.29 846.483 1045.95 820.298 1013.45 820.298H845.341ZM836.937 878.79C836.937 874.176 840.699 870.434 845.341 870.434H1013.45C1018.1 870.434 1021.86 874.176 1021.86 878.79V1045.91C1021.86 1050.53 1018.1 1054.27 1013.45 1054.27H845.341C840.699 1054.27 836.937 1050.53 836.937 1045.91V878.79Z" fill="white"/>
</g>
</g>
<defs>
<filter id="filter0_d_325_3" x="406.666" y="432.596" width="686.668" height="686.81" filterUnits="userSpaceOnUse" color-interpolation-filters="sRGB">
<feFlood flood-opacity="0" result="BackgroundImageFix"/>
<feColorMatrix in="SourceAlpha" type="matrix" values="0 0 0 0 0 0 0 0 0 0 0 0 0 0 0 0 0 0 127 0" result="hardAlpha"/>
<feOffset dy="5"/>
<feGaussianBlur stdDeviation="5"/>
<feComposite in2="hardAlpha" operator="out"/>
<feColorMatrix type="matrix" values="0 0 0 0 0.8375 0 0 0 0 0.8375 0 0 0 0 0.8375 0 0 0 0.2 0"/>
<feBlend mode="normal" in2="BackgroundImageFix" result="effect1_dropShadow_325_3"/>
<feBlend mode="normal" in="SourceGraphic" in2="effect1_dropShadow_325_3" result="shape"/>
</filter>
</defs>
</svg>
