<svg width="755" height="756" viewBox="0 0 755 756" fill="none" xmlns="http://www.w3.org/2000/svg">
<path d="M755 377.513C755 169.019 585.987 0 377.5 0C169.013 0 0 169.019 0 377.513C0 586.008 169.013 755.027 377.5 755.027C585.987 755.027 755 586.008 755 377.513Z" fill="#DD3CEF" fill-opacity="0.75"/>
<mask id="mask0_329_2" style="mask-type:luminance" maskUnits="userSpaceOnUse" x="167" y="167" width="421" height="421">
<path d="M587.222 167.784H167.777V587.243H587.222V167.784Z" fill="white"/>
</mask>
<g mask="url(#mask0_329_2)">
<g filter="url(#filter0_d_329_2)">
<path fill-rule="evenodd" clip-rule="evenodd" d="M488.736 218.352C477.172 206.856 458.421 206.856 446.857 218.352L398.99 265.927C387.424 277.422 387.424 296.061 398.99 307.556L446.857 355.133C458.421 366.629 477.172 366.629 488.736 355.133L536.603 307.556C548.169 296.061 548.169 277.422 536.603 265.927L488.736 218.352ZM464.805 236.193C466.457 234.551 469.136 234.551 470.788 236.193L518.653 283.768C520.306 285.411 520.306 288.074 518.653 289.716L470.788 337.292C469.136 338.934 466.457 338.934 464.805 337.292L416.94 289.716C415.287 288.074 415.287 285.411 416.94 283.768L464.805 236.193ZM239.337 217.295C222.98 217.295 209.722 230.474 209.722 246.73V330.834C209.722 347.092 222.98 360.269 239.337 360.269H323.951C340.307 360.269 353.566 347.092 353.566 330.834V246.73C353.566 230.474 340.307 217.295 323.951 217.295H239.337ZM235.106 246.73C235.106 244.409 237 242.525 239.337 242.525H323.951C326.287 242.525 328.181 244.409 328.181 246.73V330.834C328.181 333.156 326.287 335.039 323.951 335.039H239.337C237 335.039 235.106 333.156 235.106 330.834V246.73ZM209.722 431.758C209.722 415.5 222.98 402.322 239.337 402.322H323.951C340.307 402.322 353.566 415.5 353.566 431.758V515.862C353.566 532.118 340.307 545.297 323.951 545.297H239.337C222.98 545.297 209.722 532.118 209.722 515.862V431.758ZM239.337 427.553C237 427.553 235.106 429.436 235.106 431.758V515.862C235.106 518.183 237 520.067 239.337 520.067H323.951C326.287 520.067 328.181 518.183 328.181 515.862V431.758C328.181 429.436 326.287 427.553 323.951 427.553H239.337ZM425.488 402.322C409.134 402.322 395.873 415.5 395.873 431.758V515.862C395.873 532.118 409.134 545.297 425.488 545.297H510.105C526.459 545.297 539.72 532.118 539.72 515.862V431.758C539.72 415.5 526.459 402.322 510.105 402.322H425.488ZM421.258 431.758C421.258 429.436 423.152 427.553 425.488 427.553H510.105C512.441 427.553 514.335 429.436 514.335 431.758V515.862C514.335 518.183 512.441 520.067 510.105 520.067H425.488C423.152 520.067 421.258 518.183 421.258 515.862V431.758Z" fill="black"/>
</g>
</g>
<defs>
<filter id="filter0_d_329_2" x="199.722" y="204.73" width="355.556" height="355.567" filterUnits="userSpaceOnUse" color-interpolation-filters="sRGB">
<feFlood flood-opacity="0" result="BackgroundImageFix"/>
<feColorMatrix in="SourceAlpha" type="matrix" values="0 0 0 0 0 0 0 0 0 0 0 0 0 0 0 0 0 0 127 0" result="hardAlpha"/>
<feOffset dy="5"/>
<feGaussianBlur stdDeviation="5"/>
<feComposite in2="hardAlpha" operator="out"/>
<feColorMatrix type="matrix" values="0 0 0 0 0.8375 0 0 0 0 0.8375 0 0 0 0 0.8375 0 0 0 0.2 0"/>
<feBlend mode="normal" in2="BackgroundImageFix" result="effect1_dropShadow_329_2"/>
<feBlend mode="normal" in="SourceGraphic" in2="effect1_dropShadow_329_2" result="shape"/>
</filter>
</defs>
</svg>
