<svg width="755" height="776" viewBox="0 0 755 776" fill="none" xmlns="http://www.w3.org/2000/svg">
<path d="M755 388C755 179.505 585.987 10.4865 377.5 10.4865C169.012 10.4865 0 179.505 0 388C0 596.495 169.012 765.513 377.5 765.513C585.987 765.513 755 596.495 755 388Z" fill="#DD3CEF"/>
<mask id="mask0_325_3" style="mask-type:luminance" maskUnits="userSpaceOnUse" x="167" y="178" width="421" height="420">
<path d="M587.222 178.27H167.777V597.73H587.222V178.27Z" fill="white"/>
</mask>
<g mask="url(#mask0_325_3)">
<g filter="url(#filter0_d_325_3)">
<path fill-rule="evenodd" clip-rule="evenodd" d="M488.736 228.838C477.172 217.343 458.421 217.343 446.857 228.838L398.99 276.413C387.424 287.909 387.424 306.547 398.99 318.043L446.857 365.62C458.421 377.115 477.172 377.115 488.736 365.62L536.603 318.043C548.169 306.547 548.169 287.909 536.603 276.413L488.736 228.838ZM464.805 246.68C466.457 245.038 469.136 245.038 470.788 246.68L518.653 294.255C520.306 295.897 520.306 298.561 518.653 300.203L470.788 347.778C469.136 349.42 466.457 349.42 464.805 347.778L416.94 300.203C415.287 298.561 415.287 295.897 416.94 294.255L464.805 246.68ZM239.337 227.781C222.98 227.781 209.722 240.961 209.722 257.217V341.321C209.722 357.579 222.98 370.756 239.337 370.756H323.951C340.307 370.756 353.566 357.579 353.566 341.321V257.217C353.566 240.961 340.307 227.781 323.951 227.781H239.337ZM235.106 257.217C235.106 254.895 237 253.012 239.337 253.012H323.951C326.287 253.012 328.181 254.895 328.181 257.217V341.321C328.181 343.642 326.287 345.526 323.951 345.526H239.337C237 345.526 235.106 343.642 235.106 341.321V257.217ZM209.722 442.245C209.722 425.986 222.98 412.809 239.337 412.809H323.951C340.307 412.809 353.566 425.986 353.566 442.245V526.348C353.566 542.604 340.307 555.784 323.951 555.784H239.337C222.98 555.784 209.722 542.604 209.722 526.348V442.245ZM239.337 438.039C237 438.039 235.106 439.923 235.106 442.245V526.348C235.106 528.67 237 530.553 239.337 530.553H323.951C326.287 530.553 328.181 528.67 328.181 526.348V442.245C328.181 439.923 326.287 438.039 323.951 438.039H239.337ZM425.488 412.809C409.134 412.809 395.873 425.986 395.873 442.245V526.348C395.873 542.604 409.134 555.784 425.488 555.784H510.105C526.459 555.784 539.72 542.604 539.72 526.348V442.245C539.72 425.986 526.459 412.809 510.105 412.809H425.488ZM421.258 442.245C421.258 439.923 423.152 438.039 425.488 438.039H510.105C512.441 438.039 514.335 439.923 514.335 442.245V526.348C514.335 528.67 512.441 530.553 510.105 530.553H425.488C423.152 530.553 421.258 528.67 421.258 526.348V442.245Z" fill="white"/>
</g>
</g>
<defs>
<filter id="filter0_d_325_3" x="199.722" y="215.217" width="355.556" height="355.567" filterUnits="userSpaceOnUse" color-interpolation-filters="sRGB">
<feFlood flood-opacity="0" result="BackgroundImageFix"/>
<feColorMatrix in="SourceAlpha" type="matrix" values="0 0 0 0 0 0 0 0 0 0 0 0 0 0 0 0 0 0 127 0" result="hardAlpha"/>
<feOffset dy="5"/>
<feGaussianBlur stdDeviation="5"/>
<feComposite in2="hardAlpha" operator="out"/>
<feColorMatrix type="matrix" values="0 0 0 0 0.8375 0 0 0 0 0.8375 0 0 0 0 0.8375 0 0 0 0.2 0"/>
<feBlend mode="normal" in2="BackgroundImageFix" result="effect1_dropShadow_325_3"/>
<feBlend mode="normal" in="SourceGraphic" in2="effect1_dropShadow_325_3" result="shape"/>
</filter>
</defs>
</svg>
