<?xml version="1.0" encoding="UTF-8"?>
<!DOCTYPE svg PUBLIC "-//W3C//DTD SVG 1.1//EN" "http://www.w3.org/Graphics/SVG/1.1/DTD/svg11.dtd">
<svg xmlns="http://www.w3.org/2000/svg" version="1.1" width="834" height="834" style="shape-rendering:geometricPrecision; text-rendering:geometricPrecision; image-rendering:optimizeQuality; fill-rule:evenodd; clip-rule:evenodd" xmlns:xlink="http://www.w3.org/1999/xlink">
<g><path style="opacity:0.992" fill="#ee3c60" d="M 143.5,61.5 C 143.5,69.5 143.5,77.5 143.5,85.5C 136.562,115.771 118.229,135.438 88.5,144.5C 77.1667,144.5 65.8333,144.5 54.5,144.5C 24.7709,135.438 6.43752,115.771 -0.5,85.5C -0.5,77.5 -0.5,69.5 -0.5,61.5C 10.9294,18.6044 38.9294,-1.22892 83.5,2C 116.014,9.34735 136.014,29.1807 143.5,61.5 Z"/></g>
<g><path style="opacity:1" fill="#feecef" d="M 103.5,62.5 C 102.583,69.3981 101.416,76.3981 100,83.5C 98.8333,86 97,87.8333 94.5,89C 82.1667,89.6667 69.8333,89.6667 57.5,89C 54.6667,87.5 52.5,85.3333 51,82.5C 50.2984,72.6676 49.465,63.001 48.5,53.5C 48.6602,51.8008 48.4935,50.1341 48,48.5C 45.1229,47.5438 42.4562,46.2105 40,44.5C 39.3877,42.7627 40.0543,41.7627 42,41.5C 45.3502,42.8379 48.6835,44.1712 52,45.5C 52.4966,47.8098 52.6633,50.1432 52.5,52.5C 67.837,52.3334 83.1703,52.5001 98.5,53C 102.39,54.9449 104.057,58.1116 103.5,62.5 Z"/></g>
<g><path style="opacity:1" fill="#ee4264" d="M 53.5,57.5 C 68.5037,57.3334 83.5037,57.5001 98.5,58C 99.0585,58.7247 99.3918,59.5581 99.5,60.5C 98.2113,68.2369 96.7113,75.9035 95,83.5C 82.5756,84.6548 70.0756,84.8214 57.5,84C 57,83.5 56.5,83 56,82.5C 55.0009,74.1757 54.1675,65.8424 53.5,57.5 Z"/></g>
<g><path style="opacity:1" fill="#ee4365" d="M 48.5,53.5 C 49.465,63.001 50.2984,72.6676 51,82.5C 52.5,85.3333 54.6667,87.5 57.5,89C 69.8333,89.6667 82.1667,89.6667 94.5,89C 97,87.8333 98.8333,86 100,83.5C 101.416,76.3981 102.583,69.3981 103.5,62.5C 103.34,64.1992 103.506,65.8659 104,67.5C 105.659,68.8168 106.826,70.4835 107.5,72.5C 108.325,73.3857 109.325,73.719 110.5,73.5C 110.67,74.8221 110.337,75.9887 109.5,77C 110.578,77.6739 111.245,78.6739 111.5,80C 110.735,89.6171 110.735,99.6171 111.5,110C 110.809,111.067 110.309,112.234 110,113.5C 87.3154,113.613 64.1487,113.447 40.5,113C 40.8333,112.667 41.1667,112.333 41.5,112C 40.1667,109.667 38.8333,107.333 37.5,105C 38.8333,104 38.8333,103 37.5,102C 38.1667,101.667 38.8333,101.333 39.5,101C 37.1008,98.3847 35.7675,95.5514 35.5,92.5C 35.5914,86.5914 35.5914,80.7581 35.5,75C 36.2567,73.4878 37.2567,72.1545 38.5,71C 37.8333,70.6667 37.1667,70.3333 36.5,70C 39.65,65.5166 43.4834,61.6833 48,58.5C 48.4935,56.8659 48.6602,55.1992 48.5,53.5 Z"/></g>
<g><path style="opacity:1" fill="#fefafb" d="M 74.5,64.5 C 80.1764,64.3339 85.8431,64.5006 91.5,65C 92.8333,66 92.8333,67 91.5,68C 85.8333,68.6667 80.1667,68.6667 74.5,68C 73.3157,66.8545 73.3157,65.6879 74.5,64.5 Z"/></g>
<g><path style="opacity:1" fill="#fef6f8" d="M 57.5,92.5 C 63.6529,92.4837 66.4862,95.4837 66,101.5C 61.9021,106.804 57.9021,106.804 54,101.5C 52.9804,97.5532 54.1471,94.5532 57.5,92.5 Z"/></g>
<g><path style="opacity:1" fill="#fef5f7" d="M 89.5,92.5 C 99.1056,93.5876 100.772,97.7543 94.5,105C 87.6667,106.167 84.8333,103.333 86,96.5C 86.6897,94.6498 87.8564,93.3164 89.5,92.5 Z"/></g>
<g><path style="opacity:1" fill="#f36f85" d="M 58.5,96.5 C 62.1612,96.3501 63.1612,97.8501 61.5,101C 57.7071,101.487 56.7071,99.9866 58.5,96.5 Z"/></g>
<g><path style="opacity:1" fill="#f2647d" d="M 90.5,96.5 C 91.5,96.5 92.5,96.5 93.5,96.5C 93.5,98.1667 93.5,99.8333 93.5,101.5C 89.7162,101.475 88.7162,99.8081 90.5,96.5 Z"/></g>
</svg>
